# xmcd
#
# Track frame offsets: 
#        170
#        12617
#        22680
#        38402
#        57722
#        80927
#        95897
#        111417
#        130877
#        148040
#        169420
#        192520
#        206077
#
# Disc length: 3044 seconds
#
# Revision: 3
# Processed by: cddbd v1.5.2PL0 Copyright (c) Steve Scherf et al.
# Submitted via: ExactAudioCopyFreeDBPlugin 1.0
#
DISCID=c60be20d
DTITLE=Ry Cooder - Why Don't You Try Me Tonight - The Best Of Ry Coode
DTITLE=r
DYEAR=1986
DGENRE=Blues
TTITLE0=How Can A Poor Man Stand Such Times and Live?
TTITLE1=Available Space
TTITLE2=Money Honey
TTITLE3=Tattler
TTITLE4=He'll Have To Go
TTITLE5=Smack Dab In the Middle
TTITLE6=Dark End Of the Street
TTITLE7=Down In Hollywood
TTITLE8=Little Sister
TTITLE9=I Think It's Gonna Work Out Fine
TTITLE10=Crazy 'Bout An Automobile (Every Woman I Know)
TTITLE11=634-5789
TTITLE12=Why Don't You Try Me
EXTD=
EXTT0=
EXTT1=
EXTT2=
EXTT3=
EXTT4=
EXTT5=
EXTT6=
EXTT7=
EXTT8=
EXTT9=
EXTT10=
EXTT11=
EXTT12=
PLAYORDER=
